<?xml version="1.0" encoding="utf-8"?>
<!-- Generator: Adobe Illustrator 28.6.0, SVG Export Plug-In . SVG Version: 9.03 Build 54939)  -->
<svg version="1.0" id="Layer_1" xmlns="http://www.w3.org/2000/svg" xmlns:xlink="http://www.w3.org/1999/xlink" x="0px" y="0px"
	 viewBox="0 0 64 64" style="enable-background:new 0 0 64 64;" xml:space="preserve">
<style type="text/css">
	.st0{fill:none;stroke:#dadada;stroke-width:2;stroke-linecap:round;stroke-linejoin:round;stroke-miterlimit:10;}
</style>
<g>
	<path class="st0" d="M22.6,15.4c-0.8-1-2-1.7-3.3-2.1v0c-0.5-0.1-1.1-0.2-1.6-0.2c-3.5,0-6.3,2.8-6.3,6.3c0,0.4,0,0.8,0.1,1.2
		c0.2,1,0.6,1.9,1.2,2.7"/>
	<path class="st0" d="M5.8,30C5.3,29.1,5,28.1,5,27c0-3.5,2.8-6.3,6.3-6.3c0,0,0.1,0,0.1,0"/>
	<path class="st0" d="M44.7,13.3c0-0.1,0-0.2,0-0.2c0-3.5-2.8-6.3-6.3-6.3S32,9.6,32,13.1c0-3.5-2.8-6.3-6.3-6.3s-6.3,2.8-6.3,6.3
		c0,0.1,0,0.2,0,0.2"/>
	<path class="st0" d="M51.3,23.3c0.6-0.8,1-1.7,1.2-2.7c0.1-0.4,0.1-0.8,0.1-1.2c0-3.5-2.8-6.3-6.3-6.3c-0.6,0-1.1,0.1-1.6,0.2v0
		c-1.3,0.3-2.4,1.1-3.3,2.1"/>
	<path class="st0" d="M52.5,20.6c0,0,0.1,0,0.1,0c3.5,0,6.3,2.8,6.3,6.3c0,1.1-0.3,2.2-0.8,3.1"/>
	<path class="st0" d="M13.5,32.2c-1.1-1.6-3.1-2.7-5.2-2.7c-0.9,0-1.7,0.2-2.5,0.5C3.5,31,2,33.2,2,35.9c0,3.5,2.8,6.3,6.4,6.3H17"
		/>
	<path class="st0" d="M50.5,32.2c1.1-1.6,3.1-2.7,5.2-2.7c0.9,0,1.7,0.2,2.5,0.5c2.3,1,3.9,3.2,3.9,5.8c0,3.5-2.8,6.3-6.3,6.3H47"/>
	<line class="st0" x1="32" y1="27.2" x2="32" y2="13.1"/>
	<line class="st0" x1="32" y1="27.2" x2="32" y2="13.1"/>
	<path class="st0" d="M21.8,36.4l-2.6-2.6l4.4-4.4l2.6,2.6c0.8-0.5,1.7-0.9,2.7-1.1l0-3.7l6.2,0v3.7c1,0.2,1.9,0.6,2.7,1.1l2.6-2.6
		l4.4,4.4l-2.6,2.6c0.5,0.8,0.9,1.7,1.1,2.7H47l0,6.2l-3.7,0c-0.2,1-0.6,1.9-1.1,2.7l2.6,2.6L40.4,55l-2.6-2.6
		c-0.8,0.5-1.7,0.9-2.7,1.1l0,3.7h-6.2l0-3.7c-1-0.2-1.9-0.6-2.7-1.1L23.6,55l-4.4-4.4l2.6-2.6c-0.5-0.8-0.9-1.7-1.1-2.7H17l0-6.2
		l3.7,0C20.9,38.2,21.3,37.3,21.8,36.4z"/>
	<polygon class="st0" points="32,35.3 34.1,39.3 38.6,40.1 35.5,43.4 36.1,47.9 32,45.9 27.9,47.9 28.5,43.4 25.4,40.1 29.9,39.3 	
		"/>
</g>
</svg>
